# xmcd
#
# Track frame offsets:
#	150
#	11529
#	22368
#	34145
#	44762
#	57168
#	67018
#	77290
#	87198
#	97632
#	109874
#	119334
#	131571
#	141804
#	152576
#	162672
#	174818
#	184613
#	195668
#	207214
#	220055
#	230617
#	242456
#	254576
#	266393
#	278530
#	288939
#
# Disc length: 4051 seconds
# Revision: 0
# Processed by: cddbd v1.5.2PL0 Copyright (c) Steve Scherf et al.
# Submitted via: dBpowerAMP V12.0
#
DISCID=740fd11b
DTITLE=Lightnin Hopkins;Donald Crooks;Ben Turner;Ruth Ames - Rockin' at Heralds Records
DYEAR=1954
DGENRE=Blues
TTITLE0=Lightnin's Boogie
TTITLE1=Don't Think 'Cause You're Pretty
TTITLE2=Don't Think 'Cause You're Pretty (Alternate Take)
TTITLE3=Lightnin's Special
TTITLE4=Life I Used to Live
TTITLE5=Sick Feelin' Blues
TTITLE6=Let's Move
TTITLE7=Early Mornin' Boogie
TTITLE8=Nothin' But The Blues
TTITLE9=Evel Hearted Woman
TTITLE10=They Wondoer Who I Am
TTITLE11=My Baby's Gone
TTITLE12=Don't Need No Job
TTITLE13=Blues For My Cookie
TTITLE14=Had A Gal Called Sal
TTITLE15=Lonesome In Your Home
TTITLE16=Hopkin's Sky Hop
TTITLE17=I Love You Baby
TTITLE18=Grandma's Boogie
TTITLE19=That's Alright Baby
TTITLE20=Finally Met My Baby
TTITLE21=Shine On Moon
TTITLE22=Sittin' Down Thinkin'
TTITLE23=Remember Me
TTITLE24=Please Don't Go Baby
TTITLE25=My Little Kewpie Doll
TTITLE26=Lightnin Don't Feel Well
EXTD=
EXTT0=
EXTT1=
EXTT2=
EXTT3=
EXTT4=
EXTT5=
EXTT6=
EXTT7=
EXTT8=
EXTT9=
EXTT10=
EXTT11=
EXTT12=
EXTT13=
EXTT14=
EXTT15=
EXTT16=
EXTT17=
EXTT18=
EXTT19=
EXTT20=
EXTT21=
EXTT22=
EXTT23=
EXTT24=
EXTT25=
EXTT26=
PLAYORDER=
